<svg width="107" height="105" viewBox="0 0 107 105" fill="none" xmlns="http://www.w3.org/2000/svg">
<path d="M89 99.3587C89 94.6628 76.0191 88 60 88C43.9809 88 31 94.6628 31 99.3587C31 99.3587 36.2408 105 60 105C83.7592 105 89 99.3587 89 99.3587Z" fill="#94D1E0"/>
<path d="M36.536 93.5079C38.6912 92.403 40.9086 91.4333 43.1883 90.6464L44.9622 78H56.7496L57.5588 88.683C60.7488 90.1456 64.4134 94.4299 63.9621 97.4902C63.3085 101.941 55.8082 102.736 43.943 101.433C40.9397 101.099 34.4975 99.1674 32 97.2994C32 97.3074 33.9218 94.8433 36.536 93.5079Z" fill="#82AEC0"/>
<path d="M47.3739 81.6879L54.8053 80L55.4219 86.3222L65 87.1587L64.0711 97L46 92.9007L47.3739 81.6879Z" fill="#2F7889"/>
<path d="M13 79.5157C18.054 85.6402 55.3308 84.1805 72.7252 71.2055C90.1195 58.2305 101.072 23.3216 95.5688 16L13 79.5157Z" fill="#82AEC0"/>
<path d="M12.7037 80.0327C12.0655 79.2045 11.8788 78.5117 12.0733 77.5103L31.7792 75.2514C31.7792 75.2514 46.2396 78.8581 66 73L65.6809 76.2227C46.8155 85.2057 17.5602 86.3125 12.7037 80.0327Z" fill="#2F7889"/>
<path d="M11.3502 78.4481C5.08165 70.0545 18.8711 49.0911 42.1498 31.625C65.4285 14.159 89.3813 6.80435 95.6498 15.198C101.918 23.5916 88.1289 44.555 64.8502 62.0211C41.5715 79.4871 17.6187 86.8418 11.3502 78.4481Z" fill="#FAFAFA"/>
<path d="M32.0667 73.1943C24.8923 66.0187 37.0795 43.3992 58.0604 21.5003C75.4153 11.8992 90.6938 9.01656 95.4974 15.4405C101.727 23.7708 88.0208 44.5615 64.8861 61.8884C57.4948 67.4213 48.9568 72.4427 42.0226 75.7438C37.6374 76.5729 34.1741 75.3021 32.0667 73.1943Z" fill="#E0E0E0"/>
<path d="M60 93.5639L72 94V64.5499C68.8044 63.1226 64.738 64.2565 63.8598 70.5367C63.3801 73.9622 60 93.5639 60 93.5639Z" fill="#2F7889"/>
<path d="M42.1939 31.8454C65.3885 14.4235 89.2508 7.09162 95.494 15.4598C101.737 23.8279 88.0006 44.7404 64.8061 62.1546C41.6115 79.5765 17.7492 86.9084 11.506 78.5402C5.26277 70.1721 18.9993 49.2673 42.1939 31.8454ZM13.2143 76.4599C18.5878 83.6671 40.8117 76.0859 62.8493 59.5288C84.8868 42.9718 98.3982 23.7188 93.0247 16.5116C87.6512 9.30443 65.4273 16.8856 43.3897 33.4427C21.3522 49.9998 7.8408 69.2527 13.2143 76.4599Z" fill="#82AEC0"/>
<path d="M64 97L77 93.5188L74.9037 69.7355C74.6657 66.5431 73.3066 65.0153 71.4406 65.0001C69.114 64.9849 66.8795 66.3531 66.5109 70.0395C66.1807 73.3459 64 97 64 97Z" fill="#94D1E0"/>
<path opacity="0.7" d="M71 72C69.8954 72 69 70.8807 69 69.5C69 68.1193 69.8954 67 71 67C72.1046 67 73 68.1193 73 69.5C73 70.8807 72.1046 72 71 72Z" fill="#2F7889"/>
<path d="M33 24L48 44" stroke="#2F7889" stroke-width="2" stroke-miterlimit="10" stroke-linecap="round"/>
<path d="M81 43L34 23" stroke="#82AEC0" stroke-width="3" stroke-miterlimit="10" stroke-linecap="round"/>
<path d="M32 25L36 75" stroke="#82AEC0" stroke-width="2" stroke-miterlimit="10" stroke-linecap="round"/>
<path d="M33.1879 24.2053C35.4523 22.5769 35.1421 21.2279 34.6458 20.5734L30.1093 14.6187C29.613 13.9641 28.3568 13.4692 26.4336 15.0816C24.8284 16.4226 24.7818 17.8674 25.2781 18.522L29.8146 24.4767C30.3109 25.1312 31.6603 25.3068 33.1879 24.2053Z" fill="#82AEC0"/>
<path d="M32.7979 21.971C33.3833 21.5449 32.6442 19.7837 31.2612 18.2143C29.8782 16.6448 28.8172 15.679 28.2391 16.098C27.6537 16.5241 28.1513 17.9799 29.6441 19.7482C31.1295 21.5236 32.5564 22.1485 32.7979 21.971Z" fill="#94D1E0"/>
<path d="M92.995 15.7652C92.8161 15.5303 91.2841 13.9252 92.2173 13.2518C93.2283 12.5314 94.6826 13.3849 95.9502 15.452C98.5088 19.6019 95.6624 26.2261 95.0559 27.6355C90.8019 37.5327 79.7432 50.3113 64.7261 61.6335C58.4269 66.3785 52.0887 70.3718 46.0539 73.5195C43.3942 74.9054 41.2711 76.2678 38.4715 75.9546C36.8539 75.7746 36.465 74.7018 37.8338 74.0128C45.1751 70.3014 54.7329 65.0552 62.7741 58.9948C84.8448 42.3638 98.3766 23.008 92.995 15.7652Z" fill="#94D1E0"/>
</svg>
