<svg width="108" height="106" viewBox="0 0 108 106" fill="none" xmlns="http://www.w3.org/2000/svg">
<path d="M18.3218 99.7017C18.3218 94.8892 31.3062 88.061 47.3296 88.061C63.353 88.061 76.3374 94.8892 76.3374 99.7017C76.3374 99.7017 71.0952 105.483 47.3296 105.483C23.564 105.483 18.3218 99.7017 18.3218 99.7017Z" fill="#94D1E0"/>
<path d="M70.7827 93.4907C68.6186 92.4048 66.3921 91.4517 64.103 90.6782L62.3217 78.2485H50.4858L49.6733 88.7485C46.4702 90.186 42.7905 94.397 43.2436 97.4048C43.8999 101.78 51.4311 102.561 63.3452 101.28C66.3608 100.952 72.8296 99.0532 75.3374 97.2173C75.3374 97.2251 73.4077 94.8032 70.7827 93.4907Z" fill="#82AEC0"/>
<path d="M59.9546 81.5298L52.5171 79.7798L51.8999 86.3345L42.314 87.2017L43.2437 97.4048L61.3296 93.1548L59.9546 81.5298Z" fill="#2F7889"/>
<path d="M94.3375 79.9673C89.2438 86.1626 51.6735 84.686 34.1422 71.561C16.611 58.436 5.5719 23.1235 11.1188 15.7173L94.3375 79.9673Z" fill="#82AEC0"/>
<path d="M94.4936 79.8423C95.1343 78.9829 95.3218 78.2642 95.1265 77.2251L75.3452 74.8814C75.3452 74.8814 60.8296 78.6235 40.9937 72.5454L41.314 75.8892C60.2515 85.2095 89.6186 86.3579 94.4936 79.8423Z" fill="#2F7889"/>
<path d="M95.8725 78.4481C102.156 70.0545 88.3341 49.0911 65.0012 31.625C41.6683 14.159 17.6597 6.80435 11.3766 15.198C5.09348 23.5916 18.9151 44.555 42.248 62.0211C65.5809 79.4871 89.5894 86.8418 95.8725 78.4481Z" fill="#FAFAFA"/>
<path d="M75.3374 73.4282C82.5718 66.1938 70.2828 43.3891 49.1265 21.311C31.6265 11.6313 16.2203 8.72505 11.3765 15.2016C5.09526 23.6001 18.9156 44.561 42.2437 62.0297C49.6968 67.6079 58.3062 72.6704 65.2984 75.9985C69.7203 76.8344 73.2124 75.5532 75.3374 73.4282Z" fill="#E0E0E0"/>
<path d="M47.3296 93.2562L34.6265 93.6858V64.6702C38.0093 63.264 42.314 64.3812 43.2437 70.5687C43.7515 73.9437 47.3296 93.2562 47.3296 93.2562Z" fill="#2F7889"/>
<path d="M65.0015 31.6312C41.6655 14.1624 17.6577 6.81085 11.3765 15.2015C5.09522 23.5921 18.9155 44.5609 42.2515 62.0218C65.5874 79.4905 89.5952 86.8421 95.8765 78.4515C102.158 70.0609 88.3374 49.0999 65.0015 31.6312ZM94.1577 76.3655C88.7515 83.5921 66.3921 75.9905 44.2202 59.389C22.0483 42.7874 8.4546 23.4827 13.8608 16.2562C19.2671 9.0296 41.6265 16.6312 63.7984 33.2327C85.9702 49.8343 99.564 69.139 94.1577 76.3655Z" fill="#82AEC0"/>
<path d="M43.2437 97.4049L30.0171 93.8268L32.1499 69.3815C32.3921 66.1002 33.7749 64.5299 35.6733 64.5143C38.0405 64.4987 40.314 65.9049 40.689 69.694C41.0249 73.0924 43.2437 97.4049 43.2437 97.4049Z" fill="#94D1E0"/>
<path opacity="0.7" d="M35.6733 72.2876C36.7304 72.2876 37.5874 71.1438 37.5874 69.7329C37.5874 68.322 36.7304 67.1782 35.6733 67.1782C34.6162 67.1782 33.7593 68.322 33.7593 69.7329C33.7593 71.1438 34.6162 72.2876 35.6733 72.2876Z" fill="#2F7889"/>
<path d="M74.189 24.1704L59.1343 44.4204" stroke="#2F7889" stroke-width="2" stroke-miterlimit="10" stroke-linecap="round"/>
<path d="M26.4858 43.2876L73.3062 23.4438" stroke="#82AEC0" stroke-width="3" stroke-miterlimit="10" stroke-linecap="round"/>
<path d="M75.6108 24.9204L70.6655 75.186" stroke="#82AEC0" stroke-width="2" stroke-miterlimit="10" stroke-linecap="round"/>
<path d="M74.2904 24.272C72.0091 22.6783 72.3217 21.358 72.8217 20.7173L77.392 14.8892C77.892 14.2486 79.1576 13.7642 81.0951 15.3423C82.7123 16.6548 82.7591 18.0689 82.2591 18.7095L77.6888 24.5376C77.1888 25.1783 75.8295 25.3501 74.2904 24.272Z" fill="#82AEC0"/>
<path d="M74.3452 22.1547C73.7202 21.6859 74.5092 19.7484 75.9858 18.0218C77.4624 16.2953 78.5952 15.2328 79.2124 15.6937C79.8374 16.1625 79.3061 17.764 77.7124 19.7093C76.1264 21.6625 74.603 22.35 74.3452 22.1547Z" fill="#94D1E0"/>
<path d="M13.8608 16.2561C14.0405 16.0217 15.5795 14.4202 14.642 13.7483C13.6264 13.0295 12.1655 13.8811 10.892 15.9436C8.32171 20.0842 11.1811 26.6936 11.7905 28.0999C16.0639 37.9749 27.1733 50.7249 42.2592 62.0217C48.5873 66.7561 54.9545 70.7405 61.017 73.8811C63.6889 75.2639 65.8217 76.6233 68.6342 76.3108C70.2592 76.1311 70.6498 75.0608 69.2748 74.3733C61.8998 70.6702 52.2983 65.4358 44.2201 59.3889C22.0483 42.7952 8.45452 23.4827 13.8608 16.2561Z" fill="#94D1E0"/>
</svg>
