<svg width="125" height="122" viewBox="0 0 125 122" fill="none" xmlns="http://www.w3.org/2000/svg">
<path d="M29 68.6638L66.5018 32L74 39.3328L36.4982 76L29 68.6638Z" fill="#99AAB5"/>
<path d="M29.1147 102.962C27.809 104.267 26.0385 105 24.1923 105C22.3462 105 20.5756 104.267 19.27 102.962L2.03845 85.7331C0.733232 84.4275 0 82.6569 0 80.8107C0 78.9646 0.733232 77.194 2.03845 75.8883L19.27 58.653C20.5756 57.3478 22.3462 56.6145 24.1923 56.6145C26.0385 56.6145 27.809 57.3478 29.1147 58.653L46.3462 75.8849C47.6515 77.1905 48.3847 78.9611 48.3847 80.8073C48.3847 82.6534 47.6515 84.424 46.3462 85.7296L29.1147 102.962ZM85.7247 46.347C85.0788 46.9936 84.3117 47.5066 83.4674 47.8565C82.6231 48.2065 81.7181 48.3866 80.8042 48.3866C79.8902 48.3866 78.9852 48.2065 78.1409 47.8565C77.2966 47.5066 76.5295 46.9936 75.8836 46.347L58.652 29.1151C57.3468 27.8095 56.6136 26.0389 56.6136 24.1927C56.6136 22.3466 57.3468 20.576 58.652 19.2703L75.8871 2.03849C77.1927 0.733245 78.9633 0 80.8094 0C82.6555 0 84.4261 0.733245 85.7317 2.03849L102.96 19.2703C104.265 20.5755 104.999 22.3459 105 24.192C105.001 26.0382 104.268 27.809 102.963 29.1151L85.7247 46.347Z" fill="#55ACEE"/>
<path d="M43 35.2228L38.0149 20.8877C36.4355 16.3538 33.0263 16.1071 30.5338 18.4957L20.5636 28.0536C18.0675 30.4422 18.3249 33.7092 23.0561 35.2228L38.0149 40L43 35.2228Z" fill="#99AAB5"/>
<path d="M61.2936 75.9726C59.9949 77.2702 58.2344 77.9993 56.3985 78C54.5627 78.0006 52.8017 77.2727 51.5021 75.9761L27.0285 51.5023C26.3854 50.8595 25.8752 50.0962 25.5272 49.2562C25.1791 48.4162 25 47.5158 25 46.6065C25 45.6972 25.1791 44.7968 25.5272 43.9568C25.8752 43.1168 26.3854 42.3535 27.0285 41.7107L41.7106 27.0285C42.3534 26.3854 43.1166 25.8753 43.9566 25.5272C44.7967 25.1791 45.697 25 46.6063 25C47.5156 25 48.416 25.1791 49.256 25.5272C50.096 25.8753 50.8592 26.3854 51.5021 27.0285L75.9757 51.5023C78.6754 54.2055 78.6753 58.5873 75.9722 61.2939L61.2936 75.9726Z" fill="#CCD6DD"/>
<path d="M73.0445 73.0442C66.2046 79.8878 56.2182 80.9952 50.7449 75.5251C45.2716 70.0516 53.8144 67.5006 60.6578 60.6569C67.5011 53.8132 70.052 45.2735 75.5253 50.7436C80.9951 56.2171 79.8878 66.2005 73.0445 73.0442Z" fill="#CCD6DD"/>
<path d="M97 70.1533C89.6038 62.9969 79.1445 63.5736 72.3309 70.1533C65.5209 76.7431 64.9313 86.847 72.3309 94L97 70.1533ZM87.1338 79.694L94.5334 91.6157L82.2007 84.4627L87.1338 79.694Z" fill="#99AAB5"/>
<path d="M96.1213 93.9749C95.8427 94.2999 95.512 94.5577 95.1481 94.7336C94.7841 94.9095 94.394 95 94 95C93.606 95 93.2159 94.9095 92.8519 94.7336C92.488 94.5577 92.1573 94.2999 91.8787 93.9749C91.6001 93.6499 91.3791 93.264 91.2284 92.8394C91.0776 92.4148 91 91.9596 91 91.5C91 91.0404 91.0776 90.5852 91.2284 90.1606C91.3791 89.736 91.6001 89.3501 91.8787 89.0251C92.4413 88.3687 93.2044 88 94 88C94.7957 88 95.5587 88.3687 96.1213 89.0251C96.6839 89.6815 97 90.5717 97 91.5C97 92.4283 96.6839 93.3185 96.1213 93.9749Z" fill="#99AAB5"/>
<path d="M14.3149 63.5929L19.2479 58.6596L46.3478 85.7544L41.4218 90.6842L14.3149 63.5929ZM58.6627 19.2421L63.5887 14.3158L90.6851 41.414L85.7591 46.3404L58.6627 19.2421ZM2 75.9122L6.92598 70.9824L34.0293 98.0737L29.1033 103L2 75.9122ZM70.9707 6.9298L75.8932 2L103 29.0878L98.0775 34.0141L70.9707 6.9298Z" fill="#88C9F9"/>
<path d="M27.9742 25.9767C27.6489 26.3014 27.2628 26.559 26.838 26.7345C26.4131 26.9101 25.9579 27.0003 25.4981 27C25.0384 26.9997 24.5833 26.9088 24.1587 26.7327C23.7341 26.5565 23.3484 26.2984 23.0236 25.9732C22.6987 25.648 22.4411 25.262 22.2655 24.8373C22.0899 24.4125 21.9997 23.9574 22 23.4978C22.0003 23.0382 22.0912 22.5832 22.2674 22.1587C22.4436 21.7342 22.7018 21.3486 23.0271 21.0238C23.6836 20.3679 24.5738 19.9997 25.5019 20C26.4299 20.0003 27.3199 20.3692 27.9759 21.0256C28.632 21.6819 29.0003 22.5719 29 23.4997C28.9997 24.4276 28.6307 25.3208 27.9742 25.9767Z" fill="#99AAB5"/>
<path d="M82 105.57L82.0069 105.395C82.0294 104.945 82.1405 104.504 82.334 104.097C82.5275 103.69 82.7995 103.324 83.1345 103.022C83.4696 102.72 83.861 102.486 84.2866 102.335C84.7121 102.183 85.1634 102.117 85.6146 102.14C85.6696 102.143 93.0294 102.356 98.6834 96.719C104.313 91.0995 104.11 83.7782 104.117 83.6787C104.084 83.223 104.143 82.7652 104.289 82.3323C104.436 81.8993 104.668 81.5 104.971 81.1577C105.275 80.8154 105.644 80.5371 106.057 80.339C106.47 80.1409 106.918 80.0271 107.375 80.0043C107.833 79.9814 108.29 80.05 108.721 80.2059C109.152 80.3619 109.547 80.6021 109.883 80.9124C110.219 81.2227 110.49 81.5969 110.679 82.0131C110.869 82.4292 110.973 82.8789 110.985 83.3357C111.027 83.7542 111.408 93.724 103.546 101.567C95.6776 109.413 85.6937 109.011 85.2706 108.991C84.3898 108.948 83.5593 108.569 82.9506 107.932C82.3419 107.296 82.0016 106.45 82 105.57Z" fill="#FFAC33"/>
<path d="M84 117.886C83.999 117.332 84.1316 116.786 84.3869 116.294C84.6421 115.802 85.0124 115.378 85.4667 115.057C85.9209 114.737 86.4459 114.53 86.9974 114.453C87.5489 114.377 88.1108 114.433 88.636 114.617C89.009 114.735 98.6643 117.713 109.425 107.007C120.324 96.1694 117.839 85.7686 117.728 85.3318C117.501 84.4437 117.635 83.5024 118.103 82.7128C118.57 81.9232 119.332 81.3492 120.223 81.116C121.11 80.8815 122.054 81.0055 122.848 81.4609C123.643 81.9163 124.225 82.666 124.466 83.5463C124.626 84.1357 128.22 98.1248 114.357 111.909C100.365 125.833 86.9036 121.36 86.3389 121.159C85.6558 120.922 85.0637 120.48 84.6446 119.894C84.2255 119.307 84.0002 118.606 84 117.886Z" fill="#FFAC33"/>
</svg>
