<svg width="238" height="56" viewBox="0 0 238 56" fill="currentColor" xmlns="http://www.w3.org/2000/svg">
<path d="M7.39679 39.7745L7.40033 39.7778C9.61396 41.8448 12.2085 43.4453 15.1785 44.5805L15.1807 44.5813C17.082 45.2977 19.0746 45.7876 21.1574 46.0517C22.4762 47.4367 23.7198 48.6476 24.888 49.6834L24.888 49.6834L24.8929 49.6876C26.5342 51.1055 28.1008 52.2398 29.5926 53.0846L29.5926 53.0846L29.5978 53.0875C31.13 53.931 32.6685 54.546 34.2131 54.9286L34.2162 54.9294C35.7971 55.3104 37.4596 55.5 39.2022 55.5C44.2504 55.5 48.3278 53.6689 51.3841 50.0005L51.6527 49.6782L51.3819 49.3577L46.8876 44.0381L46.5312 43.6164L46.1468 44.0126C44.1476 46.0729 41.9006 47.0773 39.3895 47.0773C38.4558 47.0773 37.5637 46.9044 36.7096 46.5587C35.9113 46.2189 35.0494 45.6239 34.1251 44.7493C34.2759 44.6943 34.426 44.6379 34.5754 44.58C37.5436 43.4454 40.1172 41.8661 42.2898 39.8399L42.2901 39.8397C44.5035 37.7729 46.2281 35.3463 47.4621 32.5635L47.4632 32.561C48.6994 29.7308 49.3152 26.6725 49.3152 23.3918C49.3152 20.0708 48.6998 17.0113 47.4621 14.22C46.2284 11.4378 44.5039 9.03156 42.29 7.00559C40.1177 4.93837 37.5441 3.33831 34.5754 2.20347C31.64 1.06547 28.4155 0.5 24.9076 0.5C21.44 0.5 18.2161 1.0659 15.241 2.20305C12.2709 3.33825 9.67638 4.93869 7.46275 7.00568C5.24934 9.07248 3.52467 11.4991 2.29074 14.2819L2.2907 14.2818L2.28817 14.2877C1.0941 17.0768 0.5 20.1135 0.5 23.3918C0.5 26.67 1.0941 29.7067 2.28817 32.4958L2.28813 32.4958L2.29074 32.5016C3.52373 35.2823 5.22614 37.7079 7.39679 39.7745ZM30.0917 35.7929L30.0876 35.7945C28.531 36.4273 26.8065 36.7474 24.9076 36.7474C23.009 36.7474 21.2619 36.4274 19.6611 35.7929C18.0594 35.158 16.6612 34.2474 15.4623 33.0602C14.3051 31.8731 13.3838 30.4663 12.7 28.8344C12.0598 27.1665 11.7372 25.3538 11.7372 23.3918C11.7372 21.3863 12.0606 19.5748 12.6992 17.951C13.3831 16.3183 14.3046 14.9109 15.4623 13.7233C16.6612 12.5361 18.0594 11.6255 19.6611 10.9906C21.2619 10.3561 23.009 10.0361 24.9076 10.0361C26.8065 10.0361 28.531 10.3562 30.0876 10.989L30.0876 10.989L30.0917 10.9906C31.6947 11.626 33.0939 12.5376 34.2935 13.7263C35.491 14.9129 36.4103 16.3177 37.0516 17.9461L37.0515 17.9461L37.0556 17.9559C37.7345 19.5783 38.078 21.3879 38.078 23.3918C38.078 25.3528 37.735 27.1643 37.054 28.8315L37.0539 28.8315L37.0516 28.8374C36.4103 30.4658 35.491 31.8706 34.2935 33.0572C33.0939 34.2459 31.6947 35.1575 30.0917 35.7929Z" stroke="currentColor"/>
<path d="M62.8318 49.0188L62.8352 49.0205C64.8573 50.0107 67.136 50.5 69.6606 50.5C72.0141 50.5 74.1878 49.9687 76.1725 48.902L76.1754 48.9004C76.9776 48.4622 77.7039 47.9426 78.3532 47.3416V48.726V49.5604V50.0604H78.8532H87H87.5V49.5604V20V19.5H87H78.4128H77.9128V20V34.6154C77.9128 36.3573 77.6278 37.7782 77.0837 38.8996C76.5371 39.9898 75.7974 40.789 74.8683 41.3205C73.9239 41.8242 72.8345 42.0824 71.5872 42.0824C69.7872 42.0824 68.4476 41.5519 67.499 40.5433C66.5897 39.5017 66.0872 37.8339 66.0872 35.4396V20V19.5H65.5872H57H56.5V20V36.7033C56.5 39.7983 57.0412 42.3957 58.156 44.4677L58.156 44.4677L58.1579 44.4711C59.2691 46.4982 60.8288 48.0191 62.8318 49.0188Z" stroke="currentColor"/>
<path d="M100.987 48.3591L100.989 48.3606C103.641 49.7911 106.658 50.5 110.029 50.5C113.362 50.5 116.36 49.7907 119.011 48.3606C121.655 46.9342 123.735 44.9869 125.241 42.5205L125.242 42.5174C126.751 40.0068 127.5 37.163 127.5 34C127.5 30.7626 126.752 27.8975 125.241 25.4218C123.735 22.9549 121.654 21.0261 119.008 19.638C116.358 18.2089 113.361 17.5 110.029 17.5C106.659 17.5 103.642 18.2087 100.991 19.6387C98.382 21.0279 96.3029 22.9761 94.7605 25.4777L94.7605 25.4777L94.7594 25.4796C93.2487 27.9543 92.5 30.7998 92.5 34C92.5 37.163 93.2493 40.0068 94.7575 42.5174L94.7574 42.5175L94.7624 42.5254C96.3047 44.9871 98.3822 46.9328 100.987 48.3591ZM113.804 41.1348C112.698 41.7796 111.444 42.1065 110.029 42.1065C108.614 42.1065 107.359 41.7796 106.254 41.1348C105.147 40.49 104.251 39.576 103.563 38.3799C102.92 37.157 102.59 35.7024 102.59 34C102.59 32.2554 102.922 30.8032 103.562 29.6228C104.25 28.4254 105.147 27.5105 106.254 26.8652C107.359 26.2204 108.614 25.8935 110.029 25.8935C111.444 25.8935 112.698 26.2204 113.804 26.8652C114.91 27.5099 115.786 28.4231 116.435 29.6177C117.077 30.7991 117.41 32.2529 117.41 34C117.41 35.7047 117.079 37.161 116.434 38.385C115.785 39.5783 114.909 40.4906 113.804 41.1348Z" stroke="currentColor"/>
<path d="M141.264 47.3358L141.268 47.3393C143.622 49.4677 146.877 50.5 150.966 50.5C152.521 50.5 154.016 50.3274 155.449 49.9807L155.449 49.9808L155.459 49.9781C156.939 49.5869 158.219 49.0171 159.289 48.2609L159.606 48.0367L159.467 47.674L156.81 40.7267L156.57 40.1002L156.039 40.5087C155.04 41.2752 153.823 41.6684 152.358 41.6684C151.155 41.6684 150.261 41.324 149.616 40.6825C148.972 40.0008 148.619 39.024 148.619 37.6842V24.3526H156.596H157.096V23.8526V16.2737V15.7737H156.596H148.619V8V7.5H148.119H138.251H137.751V8V15.7737H133H132.5V16.2737V23.8526V24.3526H133H137.751V37.8105C137.751 41.9441 138.896 45.1497 141.264 47.3358Z" stroke="currentColor"/>
<path d="M213.03 49.5009L213.03 49.501L213.039 49.5032C215.709 50.1681 218.481 50.5 221.353 50.5C224.721 50.5 227.6 50.0448 229.973 49.116C232.375 48.1922 234.244 46.9189 235.544 45.278L235.544 45.2781L235.548 45.2731C236.848 43.5885 237.5 41.66 237.5 39.5054C237.5 37.5642 237.12 35.9474 236.313 34.6961C235.532 33.4437 234.509 32.4652 233.246 31.769C232.052 31.0483 230.715 30.5003 229.239 30.1221C227.783 29.7491 226.326 29.4792 224.867 29.3128C223.482 29.1097 222.201 28.8867 221.023 28.6439C219.865 28.4051 218.954 28.0924 218.274 27.7172C217.735 27.3992 217.479 26.9517 217.479 26.3105C217.479 25.6373 217.83 25.0443 218.709 24.5334C219.577 24.0289 221.027 23.7419 223.14 23.7419C224.619 23.7419 226.141 23.921 227.709 24.2815L227.716 24.2832L227.724 24.2846C229.306 24.5999 230.876 25.2121 232.435 26.1278L232.907 26.4055L233.14 25.9095L236.344 19.0972L236.536 18.6892L236.149 18.4563C234.528 17.4788 232.521 16.7462 230.142 16.2471L230.039 16.7353L230.142 16.2471C227.769 15.7495 225.435 15.5 223.14 15.5C219.891 15.5 217.073 15.9767 214.699 16.9473C212.336 17.873 210.489 19.1686 209.192 20.8497L209.191 20.8496L209.187 20.8562C207.928 22.5425 207.301 24.4898 207.301 26.6787C207.301 28.6185 207.66 30.2486 208.417 31.5352L208.417 31.5352L208.424 31.546C209.205 32.8005 210.229 33.7994 211.491 34.5365C212.725 35.2571 214.083 35.8058 215.562 36.1847L215.562 36.1849L215.575 36.1879C217.024 36.518 218.454 36.7864 219.864 36.9929L219.866 36.9932C221.299 37.1972 222.609 37.4011 223.794 37.6047C224.952 37.8036 225.832 38.0962 226.46 38.4639L226.474 38.4725L226.49 38.48C226.796 38.6326 226.997 38.8129 227.124 39.0094C227.25 39.204 227.321 39.4445 227.321 39.7509C227.321 40.4807 226.975 41.0651 226.159 41.5246L226.159 41.5245L226.151 41.5294C225.372 41.9881 223.93 42.2581 221.723 42.2581C219.76 42.2581 217.753 41.9791 215.7 41.4182C213.683 40.8149 211.941 40.0546 210.467 39.1417L209.988 38.8453L209.75 39.3556L206.547 46.2292L206.366 46.6166L206.721 46.8552C208.302 47.9195 210.412 48.7971 213.03 49.5009Z" stroke="currentColor"/>
<path d="M176.476 37.7052L201.319 32.8989L201.724 32.8205V32.408C201.724 28.7484 200.896 25.5614 199.219 22.8677C197.594 20.1461 195.393 18.076 192.621 16.6676C189.857 15.2201 186.79 14.5 183.432 14.5C179.858 14.5 176.617 15.2852 173.722 16.8644C170.868 18.4011 168.605 20.5771 166.938 23.3847L166.937 23.3868C165.309 26.1578 164.5 29.2758 164.5 32.728C164.5 36.2241 165.331 39.3656 167.004 42.1382C168.676 44.9113 171.052 47.0853 174.115 48.6606L174.115 48.6607L174.12 48.6632C177.187 50.1965 180.7 50.956 184.648 50.956C190.981 50.956 195.871 49.0651 199.233 45.2169L199.528 44.879L199.224 44.549L193.912 38.789L193.565 38.4132L193.197 38.7681C192.046 39.8779 190.8 40.6928 189.461 41.2213C188.163 41.7071 186.648 41.956 184.904 41.956C182.706 41.956 180.873 41.5415 179.384 40.7375C178.125 40.0375 177.157 39.0318 176.476 37.7052ZM177.646 25.3328C179.12 23.8195 181.033 23.052 183.432 23.052C185.389 23.052 187.031 23.5598 188.384 24.5548C189.599 25.4483 190.445 26.6099 190.924 28.0543L175.324 31.0911C175.502 28.6298 176.289 26.7263 177.646 25.3328Z" stroke="currentColor"/>
</svg>
